<svg id="Layer_1" data-name="Layer 1" xmlns="http://www.w3.org/2000/svg" xmlns:xlink="http://www.w3.org/1999/xlink" viewBox="0 0 2612.14 1303.86"><defs><style>.cls-1{fill:#f0f0f0;}.cls-1,.cls-2,.cls-3,.cls-4,.cls-5,.cls-6,.cls-7{fill-rule:evenodd;}.cls-2{fill:#c2c2fa;}.cls-3{fill:#442f86;}.cls-4{fill:url(#GradientFill_1);}.cls-5{fill:#9186dd;}.cls-6{fill:#bbd1f5;}.cls-7{fill:url(#GradientFill_1-2);}</style><linearGradient id="GradientFill_1" x1="1807.84" y1="1208.5" x2="1506.91" y2="1277.98" gradientUnits="userSpaceOnUse"><stop offset="0" stop-color="#60b0e2"/><stop offset="1" stop-color="#916eb0"/></linearGradient><linearGradient id="GradientFill_1-2" x1="2121.82" y1="1495.5" x2="2257.34" y2="1142.46" xlink:href="#GradientFill_1"/></defs><path class="cls-1" d="M1789.92,858.07h-19.08a23.68,23.68,0,0,0-23.68,23.67v38.37a23.68,23.68,0,0,1-23.68,23.68H1607.25a23.68,23.68,0,0,1-23.68-23.68V881.74a23.68,23.68,0,0,0-23.68-23.67h-212a23.68,23.68,0,0,1-23.68-23.68v-76.1a23.66,23.66,0,0,1,4.2-13.45L1529.36,454a23.69,23.69,0,0,1,19.49-10.22h116.27a23.68,23.68,0,0,1,19.72,36.79l-139.67,210a23.68,23.68,0,1,0,43.4,13.11V674.57a23.68,23.68,0,0,1,23.68-23.67h111.23a23.68,23.68,0,0,1,23.68,23.67v29.08a23.68,23.68,0,0,0,23.68,23.68h19.08A23.68,23.68,0,0,1,1813.6,751v83.38A23.68,23.68,0,0,1,1789.92,858.07Z" transform="translate(-706.12 -429.75)"/><path class="cls-1" d="M1946.11,924.14q-51.09-31.07-80-90t-28.93-140.37q0-81.45,28.93-140.38t80-90q51.06-31.08,117.52-31.07t117.5,31.07q51.07,31.08,80,90t28.93,140.38q0,81.43-28.93,140.37t-80,90q-51.08,31.08-117.5,31.08t-117.52-31.08Zm174.66-230.38h0q0-126.45-57.14-126.44t-57.16,126.44q0,126.43,57.16,126.44T2120.77,693.76Z" transform="translate(-706.12 -429.75)"/><path class="cls-1" d="M2792.88,858.07H2773.8a23.68,23.68,0,0,0-23.68,23.67v38.37a23.68,23.68,0,0,1-23.68,23.68H2610.21a23.68,23.68,0,0,1-23.68-23.68V881.74a23.68,23.68,0,0,0-23.68-23.67H2350.9a23.68,23.68,0,0,1-23.68-23.68v-76.1a23.65,23.65,0,0,1,4.19-13.45L2532.32,454a23.7,23.7,0,0,1,19.49-10.22h116.27a23.68,23.68,0,0,1,19.72,36.79l-139.66,210a23.68,23.68,0,1,0,43.39,13.11V674.57a23.68,23.68,0,0,1,23.68-23.67h111.23a23.68,23.68,0,0,1,23.68,23.67v29.08a23.68,23.68,0,0,0,23.68,23.68h19.08A23.68,23.68,0,0,1,2816.56,751v83.38A23.68,23.68,0,0,1,2792.88,858.07Z" transform="translate(-706.12 -429.75)"/><path class="cls-2" d="M1749.11,855.51H1730a23.68,23.68,0,0,0-23.68,23.68v38.37a23.68,23.68,0,0,1-23.68,23.68H1566.43a23.68,23.68,0,0,1-23.67-23.68V879.19a23.69,23.69,0,0,0-23.68-23.68h-212a23.68,23.68,0,0,1-23.68-23.67v-76.1a23.7,23.7,0,0,1,4.19-13.46L1488.55,451.4A23.67,23.67,0,0,1,1508,441.18h116.28A23.67,23.67,0,0,1,1644,478L1504.36,688a23.68,23.68,0,1,0,43.4,13.11V672a23.68,23.68,0,0,1,23.68-23.68h111.23A23.68,23.68,0,0,1,1706.35,672V701.1A23.68,23.68,0,0,0,1730,724.78h19.08a23.68,23.68,0,0,1,23.68,23.68v83.38A23.68,23.68,0,0,1,1749.11,855.51Z" transform="translate(-706.12 -429.75)"/><path class="cls-2" d="M1905.3,921.59q-51.09-31.08-80-90t-28.93-140.37q0-81.45,28.93-140.38t80-90q51.06-31.08,117.51-31.07t117.51,31.07q51.07,31.08,80,90t28.93,140.38q0,81.43-28.93,140.37t-80,90q-51.09,31.08-117.51,31.08T1905.3,921.59ZM2080,691.21h0q0-126.45-57.15-126.44t-57.15,126.44q0,126.43,57.15,126.44T2080,691.21Z" transform="translate(-706.12 -429.75)"/><path class="cls-2" d="M2752.07,855.51H2733a23.68,23.68,0,0,0-23.68,23.68v38.37a23.68,23.68,0,0,1-23.68,23.68H2569.4a23.68,23.68,0,0,1-23.68-23.68V879.19A23.68,23.68,0,0,0,2522,855.51h-212a23.67,23.67,0,0,1-23.67-23.67v-76.1a23.7,23.7,0,0,1,4.19-13.46L2491.51,451.4A23.69,23.69,0,0,1,2511,441.18h116.27A23.67,23.67,0,0,1,2647,478L2507.32,688a23.68,23.68,0,1,0,43.4,13.11V672a23.68,23.68,0,0,1,23.68-23.68h111.23A23.68,23.68,0,0,1,2709.31,672V701.1A23.68,23.68,0,0,0,2733,724.78h19.08a23.68,23.68,0,0,1,23.68,23.68v83.38A23.68,23.68,0,0,1,2752.07,855.51Z" transform="translate(-706.12 -429.75)"/><path class="cls-3" d="M925.78,1248.75c73.25,0,133.84-23.5,183.67-70.91,59.61-56.72,94.11-137.34,127.48-215.31,37.71-88.13,73.33-171.37,138.38-192.19,28.66-9.17,54.74-6.09,79.7,9.44,109.77,68.31,151.37,340.26,151.78,343l37.09-5.52c-1.77-11.88-44.72-291.94-169.06-369.31-34.38-21.41-71.71-25.89-110.94-13.32-81.37,26-120.26,116.93-161.43,213.15-64,149.52-130.14,304.14-360.41,253.61l-111.4-36A18.74,18.74,0,1,0,719.11,1201l114,36.79Q882.49,1248.74,925.78,1248.75Z" transform="translate(-706.12 -429.75)"/><path class="cls-4" d="M1559.5,1434l-39.91-193.49A133.25,133.25,0,0,1,1779,1179.91l49,187.67Z" transform="translate(-706.12 -429.75)"/><path class="cls-5" d="M1559.58,1439.08c4.29,17.81,68.64,17.58,143.72-.51s132.48-47.18,128.19-65-68.64-17.58-143.72.51S1555.3,1421.28,1559.58,1439.08Z" transform="translate(-706.12 -429.75)"/><path class="cls-3" d="M1721.71,1386.59c-1.08,6,9.66,13,24,15.53s26.82-.21,27.89-6.22-9.66-13-24-15.54S1722.79,1380.58,1721.71,1386.59Z" transform="translate(-706.12 -429.75)"/><path class="cls-3" d="M1627.09,1415.6c-1.08,6,9.66,13,24,15.54s26.82-.22,27.9-6.22-9.67-13-24-15.54S1628.17,1409.59,1627.09,1415.6Z" transform="translate(-706.12 -429.75)"/><path class="cls-6" d="M1679.74,1109.24s57.9,21.06,76.32,81.58S1790.27,1329,1790.27,1329l-52.63,1.32Z" transform="translate(-706.12 -429.75)"/><polygon class="cls-3" points="922.63 610.91 894.67 659.76 931.52 651.21 922.63 610.91"/><path class="cls-3" d="M3318.26,989.56l-14.91,33.15c-2.6-1.16-64.16-29.73-120.68-130.33-16.34-29.08-41.4-63.1-68-60-19.07,2.25-69.65,29.34-127.17,231.77-62.72,220.76-196.87,365-398.72,428.72-130.64,41.24-292.2-46.78-299-50.55l17.59-31.81c2,1.12,155,84.15,270.48,47.7,189.46-59.81,315.53-195.73,374.7-404,47.34-166.62,99-251,157.87-257.94,37.31-4.41,72.28,21.93,103.94,78.25,50.73,90.29,103.37,114.75,103.9,115Zm-1010.89,421h0l-8.79,15.91,8.8-15.91Z" transform="translate(-706.12 -429.75)"/><path class="cls-3" d="M1970.06,1278.3l95.75,69.38a17.89,17.89,0,1,1-21,29l-95.74-69.38a17.89,17.89,0,0,1,21-29Z" transform="translate(-706.12 -429.75)"/><path class="cls-3" d="M2043.92,1172l95.75,69.38a17.89,17.89,0,0,1-21,29L2022.93,1201a17.89,17.89,0,0,1,21-29Z" transform="translate(-706.12 -429.75)"/><polygon class="cls-3" points="1672.81 1018.37 1613.38 1027.23 1629.83 994.09 1686.01 1016.23 1672.81 1018.37"/><path class="cls-7" d="M1977.35,1377.58,2143,1485.25a133.24,133.24,0,0,0,150.94-219.51l-156.92-114Z" transform="translate(-706.12 -429.75)"/><path class="cls-6" d="M2032.89,1385.46l38.13-51.6,195.64,140.92s-46.89,23.36-100.88-2.88S2032.89,1385.46,2032.89,1385.46Z" transform="translate(-706.12 -429.75)"/><path class="cls-3" d="M1450.68,1713.08c21.6,0,32.07-10.8,32.07-23.42,0-27.75-44-18.12-44-32.07,0-4.77,4-8.66,14.37-8.66a42.64,42.64,0,0,1,20.95,5.94l5.4-13.29c-7-4.42-16.74-6.69-26.24-6.69-21.5,0-31.86,10.69-31.86,23.56,0,28.08,43.95,18.36,43.95,32.51,0,4.63-4.21,8.08-14.58,8.08a44.67,44.67,0,0,1-25-7.86l-5.94,13.15C1426.59,1709.52,1438.69,1713.08,1450.68,1713.08Z" transform="translate(-706.12 -429.75)"/><path class="cls-3" d="M1521.2,1712.65c18.47,0,31.87-12.42,31.87-29.92s-13.4-29.91-31.87-29.91-32,12.42-32,29.91,13.5,29.92,32,29.92Zm0-13.82c-8.42,0-14.9-6-14.9-16.1s6.48-16.09,14.9-16.09,14.8,6,14.8,16.09S1529.63,1698.83,1521.2,1698.83Z" transform="translate(-706.12 -429.75)"/><path class="cls-3" d="M1580.39,1661.35v-7.67H1564.3v58.11h16.85v-27.44c0-11.12,6.15-16.2,15.44-16.2,1.3,0,2.38.11,3.78.22v-15.55C1591.41,1652.82,1584.49,1655.73,1580.39,1661.35Z" transform="translate(-706.12 -429.75)"/><path class="cls-3" d="M1626.51,1661.35v-7.67h-16.09v58.11h16.84v-27.44c0-11.12,6.16-16.2,15.45-16.2,1.3,0,2.38.11,3.78.22v-15.55C1637.53,1652.82,1630.61,1655.73,1626.51,1661.35Z" transform="translate(-706.12 -429.75)"/><path class="cls-3" d="M1700.06,1653.68l-16.42,39.42-16.31-39.42H1650l25.16,58.54-.22.54c-2.26,5.18-4.86,7.24-9.5,7.24a14.92,14.92,0,0,1-9.5-3.68l-6.16,12c3.78,3.35,10.26,5.29,16.2,5.29,10.48,0,18.47-4.21,24.09-18.25l26.24-61.67Z" transform="translate(-706.12 -429.75)"/><path class="cls-3" d="M1726.2,1691.7c-5.94,0-10.48,4.1-10.48,10.37,0,4.42,2.27,7.77,5.83,9.18l-4.75,17.17h10.69l6.16-15.55c2.48-5.94,2.92-8,2.92-10.8A9.92,9.92,0,0,0,1726.2,1691.7Z" transform="translate(-706.12 -429.75)"/><path class="cls-3" d="M1812.5,1636.18h-32.73v75.61h17.5v-20.85h15.23c20.19,0,32.83-10.47,32.83-27.32s-12.64-27.44-32.83-27.44Zm-1,40.5h-14.25v-26.24h14.25c10.7,0,16.1,4.86,16.1,13.18S1822.22,1676.68,1811.52,1676.68Z" transform="translate(-706.12 -429.75)"/><path class="cls-3" d="M1879.46,1652.82c-9.29,0-18.69,2.48-25.06,7l6,11.77c4.21-3.35,10.58-5.4,16.74-5.4,9.07,0,13.39,4.21,13.39,11.45h-13.39c-17.71,0-25,7.13-25,17.39,0,10,8.1,17.6,21.71,17.6,8.53,0,14.58-2.81,17.71-8.1v7.24h15.77v-33.16c0-17.61-10.26-25.81-28-25.81Zm-1.3,48.49c-5.94,0-9.5-2.81-9.5-7,0-3.89,2.48-6.8,10.37-6.8h11.55v5.94C1888.64,1698.72,1883.78,1701.31,1878.16,1701.31Z" transform="translate(-706.12 -429.75)"/><path class="cls-3" d="M1967.27,1653.68v7.45c-4.43-5.61-11.13-8.31-19.23-8.31-16.09,0-29,11.12-29,28.08s13,28.08,29,28.08c7.56,0,13.94-2.38,18.36-7.24v2.49c0,10.47-5.18,15.87-17.06,15.87-7.45,0-15.55-2.59-20.52-6.58l-6.7,12.09c6.81,5.29,17.5,8,28.52,8,20.95,0,32.61-9.93,32.61-31.53v-48.39Zm-15.88,41.47c-8.86,0-15.34-5.72-15.34-14.25s6.48-14.26,15.34-14.26,15.23,5.73,15.23,14.26S1960.25,1695.15,1951.39,1695.15Z" transform="translate(-706.12 -429.75)"/><path class="cls-3" d="M2055.83,1683c0-18.69-13.18-30.13-30.24-30.13-17.71,0-31,12.53-31,29.91s13.07,29.92,33.16,29.92c10.48,0,18.58-3.24,24-9.4l-9-9.72c-4,3.78-8.42,5.62-14.58,5.62-8.85,0-15-4.43-16.63-11.66h44c.11-1.41.32-3.24.32-4.54Zm-30.13-17.39c7.56,0,13.07,4.75,14.25,12.1h-28.62C2012.52,1670.21,2018,1665.56,2025.7,1665.56Z" transform="translate(-706.12 -429.75)"/><polygon class="cls-3" points="1444.76 1206.44 1444.76 1252.34 1407.17 1206.44 1392.7 1206.44 1392.7 1282.04 1409.98 1282.04 1409.98 1236.14 1447.67 1282.04 1462.04 1282.04 1462.04 1206.44 1444.76 1206.44"/><path class="cls-3" d="M2212.55,1712.65c18.47,0,31.86-12.42,31.86-29.92s-13.39-29.91-31.86-29.91-32,12.42-32,29.91,13.5,29.92,32,29.92Zm0-13.82c-8.43,0-14.91-6-14.91-16.1s6.48-16.09,14.91-16.09,14.8,6,14.8,16.09S2221,1698.83,2212.55,1698.83Z" transform="translate(-706.12 -429.75)"/><path class="cls-3" d="M2288.58,1697.1a11.37,11.37,0,0,1-6.8,2.16c-4.54,0-7.24-2.7-7.24-7.67v-23.65H2289v-13h-14.48v-14.15h-16.85V1655h-9v13h9v23.87c0,13.82,8,20.84,21.71,20.84,5.19,0,10.26-1.19,13.72-3.67Z" transform="translate(-706.12 -429.75)"/><polygon class="cls-3" points="1685.39 1220.48 1685.39 1206.44 1628.26 1206.44 1628.26 1282.04 1645.76 1282.04 1645.76 1254.5 1680.75 1254.5 1680.75 1240.46 1645.76 1240.46 1645.76 1220.48 1685.39 1220.48"/><path class="cls-3" d="M2428.35,1712.65c18.46,0,31.86-12.42,31.86-29.92s-13.4-29.91-31.86-29.91-32,12.42-32,29.91,13.5,29.92,32,29.92Zm0-13.82c-8.43,0-14.91-6-14.91-16.1s6.48-16.09,14.91-16.09,14.79,6,14.79,16.09S2436.77,1698.83,2428.35,1698.83Z" transform="translate(-706.12 -429.75)"/><path class="cls-3" d="M2513.13,1653.68v28.73c0,10.69-5.62,15.66-13.39,15.66-7.46,0-11.78-4.32-11.78-14v-30.35h-16.84v32.83c0,17.93,10.26,26.14,24.84,26.14a23.53,23.53,0,0,0,18-7.77v6.91h16v-58.11Z" transform="translate(-706.12 -429.75)"/><path class="cls-3" d="M2581,1652.82c-7.89,0-14.69,2.7-19.23,7.66v-6.8h-16.09v58.11h16.85v-28.73c0-10.69,5.83-15.66,13.93-15.66,7.45,0,11.77,4.32,11.77,13.71v30.68H2605v-33.27C2605,1660.81,2594.67,1652.82,2581,1652.82Z" transform="translate(-706.12 -429.75)"/><path class="cls-3" d="M2663.26,1631.65v28.19c-4.21-4.76-10.26-7-17.39-7-16.42,0-29.06,11.66-29.06,29.91s12.64,29.92,29.06,29.92c7.78,0,13.93-2.48,18.14-7.56v6.7h16.1v-80.14Zm-14.48,67.18c-8.42,0-14.9-6-14.9-16.1s6.48-16.09,14.9-16.09,14.8,6,14.8,16.09S2657.1,1698.83,2648.78,1698.83Z" transform="translate(-706.12 -429.75)"/></svg>